<svg id="Capa_1" enable-background="new 0 0 512 512" height="512" viewBox="0 0 512 512" width="512" xmlns="http://www.w3.org/2000/svg"><g><path d="m512 256c0 141.38-114.62 256-256 256-43.91 0-85.24-11.06-121.35-30.54l-9.9-39.17h-44.34c-49.51-46.68-80.41-112.88-80.41-186.29 0-46.22 12.25-89.57 33.68-127 44.12-77.07 127.16-129 222.32-129s178.2 51.93 222.32 129c21.43 37.43 33.68 80.78 33.68 127z" fill="#ff619e"/><path d="m512 256c0 141.38-114.62 256-256 256-43.91 0-85.24-11.06-121.35-30.54l-9.9-39.17h-44.34c-49.51-46.68-80.41-112.88-80.41-186.29 0-46.22 12.25-89.57 33.68-127 44.12 77.07 127.16 129 222.32 129s178.21-51.93 222.32-129c21.43 37.43 33.68 80.78 33.68 127z" fill="#ff4784"/><g><g><path d="m238.824 374.017-38.891-7.933c-18.231-3.719-33.309-16.473-40.001-33.834l-.292-.758c-2.681-6.957-7.576-12.791-13.82-16.866-4.35-2.839-7.781-7.002-9.705-11.994-1.718-4.457-5.025-8.132-9.301-10.26-5.547-2.76-9.954-7.519-12.237-13.444-1.718-4.457-5.025-8.132-9.301-10.26-5.547-2.76-9.954-7.519-12.237-13.443l-2.017-5.232c-.699-1.813-2.273-3.144-4.176-3.533-12.129-2.474-22.403-10.265-28.096-21.069-.937-1.778.614-3.847 2.583-3.446l100 20.398c29.397 5.996 52.626 28.533 59.512 57.734z" fill="#92eaff"/></g><g><path d="m220.031 390.911h-39.692c-18.606 0-35.93-9.483-45.956-25.156l-.438-.684c-4.018-6.281-9.98-11.019-16.912-13.763-4.83-1.912-9.024-5.306-11.906-9.812-2.574-4.024-6.549-6.964-11.164-8.194-5.987-1.596-11.256-5.378-14.677-10.727-2.574-4.024-6.549-6.964-11.164-8.194-5.987-1.596-11.256-5.378-14.677-10.726l-3.022-4.724c-1.047-1.637-2.856-2.627-4.798-2.627-12.379 0-24.002-5.581-31.74-15.028-1.274-1.555-.168-3.892 1.842-3.892h102.059c30.003 0 57.267 17.439 69.85 44.675z" fill="#fff"/></g><path d="m276.76 299.63v67.57c0 42.67-34.59 77.26-77.26 77.26h-45.73c-5.37 0-10.07 3.6-11.47 8.78l-7.65 28.22c-19.79-10.67-38.02-23.87-54.24-39.17 5.74-7.44 11.67-14.72 17.8-21.84 6.46-7.5 13.27-14.99 21.77-20.24 8.85-5.48 17.59-11.14 26.56-16.46 13.78-8.16 27.65-16.4 39.56-27.1 9.07-8.15 17.01-17.84 22.07-28.99 5.58-12.28 9.14-25.62 13.33-38.45 2.36-7.23 4.86-14.71 9.99-20.33 5.02-5.5 11.83-8.31 18.73-8.5 7.49-.21 15.09 2.67 20.6 8.51 2.11 2.24 5.93 7.06 5.93 7.06v23.68z" fill="#fff"/><path d="m276.76 299.63v67.57c0 42.67-34.59 77.26-77.26 77.26h-45.73c-5.37 0-10.07 3.6-11.47 8.78l-7.65 28.22c-9.33-5.04-18.32-10.62-26.91-16.75 6.06-10.3 12.34-20.42 19.25-29.98 6.39-8.84 14.86-16.06 24.73-20.74 11.78-5.59 24.94-7.44 37.36-11.39 31.91-10.12 61.14-33.81 61.14-69.77v-72.45c7.49-.21 15.09 2.67 20.6 8.51 2.11 2.24 5.93 7.06 5.93 7.06v23.68z" fill="#cff6ff"/><ellipse cx="253.326" cy="280.085" fill="#1a3760" rx="7.4" ry="7.4" transform="matrix(.23 -.973 .973 .23 -77.469 462.285)"/><path d="m294.924 282.232-18.169 10.139-.009 7.26v-23.68z" fill="#fed500"/><path d="m277.326 282.119c-1.571 0-2.845-1.274-2.845-2.845v-3.324c0-1.571 1.273-2.845 2.845-2.845 1.571 0 2.845 1.273 2.845 2.845v3.324c0 1.572-1.274 2.845-2.845 2.845z" fill="#ff9100"/></g><g><g><path d="m451.62 266.785-28.659-5.846c-13.435-2.74-24.546-12.139-29.477-24.933l-.215-.559c-1.976-5.127-5.583-9.426-10.184-12.428-3.206-2.092-5.734-5.16-7.152-8.838-1.266-3.285-3.703-5.993-6.854-7.561-4.088-2.034-7.335-5.541-9.018-9.907-1.266-3.285-3.703-5.993-6.854-7.561-4.088-2.034-7.335-5.541-9.018-9.907l-1.486-3.856c-.515-1.336-1.675-2.317-3.078-2.603-8.938-1.823-16.509-7.565-20.704-15.526-.691-1.31.452-2.835 1.904-2.539l73.691 15.031c21.663 4.419 38.781 21.026 43.855 42.545z" fill="#92eaff"/></g><g><path d="m437.771 279.235h-29.249c-13.711 0-26.477-6.988-33.865-18.538l-.323-.504c-2.961-4.628-7.354-8.12-12.463-10.142-3.559-1.409-6.65-3.91-8.774-7.231-1.897-2.965-4.826-5.132-8.227-6.038-4.412-1.176-8.294-3.963-10.816-7.904-1.897-2.965-4.826-5.132-8.227-6.038-4.412-1.176-8.294-3.963-10.816-7.904l-2.227-3.481c-.772-1.206-2.104-1.936-3.536-1.936-9.122 0-17.688-4.112-23.39-11.075-.939-1.146-.124-2.868 1.358-2.868h75.208c22.109 0 42.2 12.851 51.473 32.922z" fill="#fff"/></g><path d="m479.572 211.966v.003 49.796c0 31.441-25.488 56.931-56.931 56.931h-33.699c-3.954 0-7.418 2.65-8.452 6.466l-20.606 76.016c-11.086-10.656-18.77-24.826-20.768-40.073-11.574 9.958-27.137 15.116-42.39 15.847 14.064-27.194 31.311-52.74 51.275-75.949 4.759-5.531 9.779-11.045 16.037-14.915 6.528-4.038 12.968-8.207 19.577-12.127 10.15-6.019 20.373-12.092 29.153-19.977 6.685-6.003 12.533-13.14 16.264-21.36 4.109-9.047 6.731-18.879 9.818-28.332 1.742-5.333 3.584-10.843 7.367-14.987 3.7-4.052 8.718-6.119 13.801-6.262 5.522-.153 11.118 1.966 15.177 6.274 1.554 1.647 4.37 5.201 4.37 5.201v17.45z" fill="#fff"/><path d="m479.572 211.97v49.796c0 31.441-25.488 56.931-56.931 56.931h-33.699c-3.954 0-7.418 2.65-8.452 6.466l-20.606 76.016c-11.086-10.656-18.77-24.826-20.768-40.073 9.861-16.467 18.86-34.046 30.09-49.579 4.709-6.514 10.952-11.836 18.227-15.286 8.681-4.117 18.376-5.483 27.533-8.389 23.513-7.463 45.052-24.919 45.052-51.417v-53.39c5.522-.153 11.118 1.966 15.177 6.274 1.554 1.647 4.37 5.201 4.37 5.201v17.45s.007-.004.007 0z" fill="#cff6ff"/><path d="m467.76 197.566c0 3.012-2.442 5.453-5.454 5.453s-5.453-2.442-5.453-5.453c0-3.012 2.442-5.454 5.453-5.454 3.012.001 5.454 2.443 5.454 5.454z" fill="#1a3760"/><path d="m492.961 199.148-13.389 7.472-.007 5.35v-17.45z" fill="#fed500"/><path d="m479.993 199.065c-1.158 0-2.096-.939-2.096-2.096v-2.449c0-1.158.939-2.096 2.096-2.096 1.158 0 2.096.938 2.096 2.096v2.449c0 1.158-.939 2.096-2.096 2.096z" fill="#ff9100"/></g><g><g><path d="m289.904 125.072-19.598-3.997c-9.187-1.874-16.785-8.301-20.157-17.049l-.147-.382c-1.351-3.506-3.818-6.446-6.964-8.499-2.192-1.43-3.921-3.529-4.89-6.044-.866-2.246-2.532-4.098-4.687-5.17-2.795-1.391-5.016-3.789-6.166-6.774-.866-2.246-2.532-4.098-4.687-5.17-2.795-1.391-5.016-3.789-6.167-6.774l-1.016-2.636c-.352-.914-1.145-1.585-2.105-1.78-6.112-1.247-11.289-5.173-14.158-10.617-.472-.896.309-1.939 1.302-1.736l50.39 10.279c14.813 3.022 26.518 14.378 29.988 29.093z" fill="#92eaff"/></g><g><path d="m280.435 133.585h-20.001c-9.376 0-18.105-4.778-23.158-12.677l-.221-.345c-2.025-3.165-5.029-5.552-8.522-6.935-2.434-.963-4.547-2.674-6-4.944-1.297-2.028-3.3-3.509-5.626-4.129-3.017-.804-5.672-2.71-7.396-5.405-1.297-2.028-3.3-3.509-5.626-4.129-3.017-.804-5.672-2.71-7.396-5.405l-1.523-2.38c-.528-.825-1.439-1.324-2.418-1.324-6.238 0-12.095-2.812-15.994-7.573-.642-.784-.084-1.961.928-1.961h51.428c15.118 0 28.857 8.788 35.198 22.512z" fill="#fff"/></g><path d="m309.018 87.586v.002 34.051c0 21.5-17.429 38.93-38.93 38.93h-23.043c-2.704 0-5.072 1.812-5.779 4.422l-14.09 51.981c-7.581-7.287-12.835-16.976-14.201-27.402-7.914 6.81-18.557 10.336-28.987 10.836 9.617-18.595 21.411-36.064 35.063-51.935 3.254-3.782 6.687-7.553 10.966-10.199 4.464-2.761 8.867-5.612 13.387-8.293 6.941-4.116 13.931-8.269 19.935-13.66 4.571-4.105 8.57-8.985 11.122-14.606 2.81-6.187 4.602-12.91 6.713-19.373 1.191-3.647 2.451-7.414 5.037-10.248 2.53-2.771 5.961-4.184 9.437-4.282 3.776-.105 7.602 1.345 10.378 4.29 1.063 1.127 2.988 3.557 2.988 3.557v11.932z" fill="#fff"/><path d="m309.018 87.588v34.051c0 21.5-17.429 38.93-38.93 38.93h-23.043c-2.704 0-5.072 1.812-5.779 4.422l-14.09 51.981c-7.581-7.287-12.835-16.976-14.201-27.402 6.743-11.26 12.896-23.281 20.576-33.903 3.22-4.454 7.489-8.094 12.464-10.453 5.936-2.815 12.565-3.749 18.827-5.737 16.078-5.104 30.807-17.04 30.807-35.159v-36.509c3.776-.105 7.602 1.345 10.378 4.29 1.063 1.127 2.988 3.557 2.988 3.557v11.932c-.001 0 .003-.002.003 0z" fill="#cff6ff"/><path d="m300.941 77.739c0 2.06-1.67 3.729-3.729 3.729-2.06 0-3.729-1.67-3.729-3.729 0-2.06 1.67-3.729 3.729-3.729 2.06 0 3.729 1.669 3.729 3.729z" fill="#1a3760"/><path d="m318.174 78.821-9.156 5.109-.004 3.658v-11.932z" fill="#fed500"/><path d="m309.306 78.764c-.792 0-1.433-.642-1.433-1.433v-1.675c0-.792.642-1.433 1.433-1.433.792 0 1.434.642 1.434 1.433v1.675c0 .791-.642 1.433-1.434 1.433z" fill="#ff9100"/></g></g></svg>